<svg width="586" height="208" viewBox="0 0 586 208" fill="none" xmlns="http://www.w3.org/2000/svg">
<path d="M106.559 205C104.447 205 102.623 204.232 101.087 202.696C99.5514 201.16 98.7834 199.336 98.7834 197.224V167.848H8.06338C5.95138 167.848 4.12738 167.08 2.59138 165.544C1.05538 164.008 0.287375 162.184 0.287375 160.072V129.544C0.287375 124.552 1.53538 120.424 4.03138 117.16L90.1434 8.58399C91.8714 6.47199 93.4074 5.12799 94.7514 4.55199C96.2874 3.78399 98.3034 3.39999 100.799 3.39999H144.287C146.399 3.39999 148.223 4.16799 149.759 5.70399C151.295 7.23999 152.063 9.06399 152.063 11.176V121.768H176.831C178.943 121.768 180.767 122.536 182.303 124.072C183.839 125.608 184.607 127.432 184.607 129.544V160.072C184.607 162.184 183.839 164.008 182.303 165.544C180.767 167.08 178.943 167.848 176.831 167.848H152.063V197.224C152.063 199.336 151.295 201.16 149.759 202.696C148.223 204.232 146.399 205 144.287 205H106.559ZM100.223 121.768V68.776L58.1754 121.768H100.223ZM292.931 0.519989C307.331 0.519989 319.715 2.63199 330.083 6.85599C340.451 11.08 348.995 16.744 355.715 23.848C362.627 30.952 367.715 39.304 370.979 48.904C374.435 58.312 376.451 68.2 377.027 78.568C377.411 86.824 377.603 95.464 377.603 104.488C377.603 113.512 377.411 121.96 377.027 129.832C376.451 140.2 374.435 150.184 370.979 159.784C367.715 169.192 362.627 177.448 355.715 184.552C348.995 191.656 340.451 197.32 330.083 201.544C319.715 205.768 307.331 207.88 292.931 207.88C278.531 207.88 266.147 205.768 255.779 201.544C245.411 197.32 236.771 191.656 229.859 184.552C223.139 177.448 218.051 169.192 214.595 159.784C211.331 150.184 209.411 140.2 208.835 129.832C208.451 121.96 208.259 113.512 208.259 104.488C208.259 95.464 208.451 86.824 208.835 78.568C209.411 68.2 211.331 58.312 214.595 48.904C218.051 39.304 223.139 30.952 229.859 23.848C236.771 16.744 245.411 11.08 255.779 6.85599C266.147 2.63199 278.531 0.519989 292.931 0.519989ZM323.747 128.392C324.515 112.072 324.515 95.944 323.747 80.008C323.363 75.208 322.595 70.792 321.443 66.76C320.483 62.728 318.851 59.272 316.547 56.392C314.243 53.32 311.171 50.92 307.331 49.192C303.491 47.464 298.691 46.6 292.931 46.6C287.171 46.6 282.371 47.464 278.531 49.192C274.691 50.92 271.619 53.32 269.315 56.392C267.011 59.272 265.283 62.728 264.131 66.76C262.979 70.792 262.307 75.208 262.115 80.008C261.155 95.944 261.155 112.072 262.115 128.392C262.307 133.192 262.883 137.608 263.843 141.64C264.995 145.672 266.723 149.224 269.027 152.296C271.523 155.176 274.691 157.48 278.531 159.208C282.371 160.936 287.171 161.8 292.931 161.8C298.691 161.8 303.491 160.936 307.331 159.208C311.171 157.48 314.243 155.176 316.547 152.296C319.043 149.224 320.771 145.672 321.731 141.64C322.883 137.608 323.555 133.192 323.747 128.392ZM507.341 205C505.229 205 503.405 204.232 501.869 202.696C500.333 201.16 499.565 199.336 499.565 197.224V167.848H408.845C406.733 167.848 404.909 167.08 403.373 165.544C401.837 164.008 401.069 162.184 401.069 160.072V129.544C401.069 124.552 402.317 120.424 404.813 117.16L490.925 8.58399C492.653 6.47199 494.189 5.12799 495.533 4.55199C497.069 3.78399 499.085 3.39999 501.581 3.39999H545.069C547.181 3.39999 549.005 4.16799 550.541 5.70399C552.077 7.23999 552.845 9.06399 552.845 11.176V121.768H577.613C579.725 121.768 581.549 122.536 583.085 124.072C584.621 125.608 585.389 127.432 585.389 129.544V160.072C585.389 162.184 584.621 164.008 583.085 165.544C581.549 167.08 579.725 167.848 577.613 167.848H552.845V197.224C552.845 199.336 552.077 201.16 550.541 202.696C549.005 204.232 547.181 205 545.069 205H507.341ZM501.005 121.768V68.776L458.957 121.768H501.005Z" fill="#ED8A0A"/>
</svg>
